<?xml version="1.0" standalone="no"?>
<!DOCTYPE svg PUBLIC "-//W3C//DTD SVG 20010904//EN"
 "http://www.w3.org/TR/2001/REC-SVG-20010904/DTD/svg10.dtd">
<svg version="1.0" xmlns="http://www.w3.org/2000/svg"
 width="624.000000pt" height="464.000000pt" viewBox="0 0 624.000000 464.000000"
 preserveAspectRatio="xMidYMid meet">
<metadata>
Created by potrace 1.16, written by Peter Selinger 2001-2019
</metadata>
<g transform="translate(0.000000,464.000000) scale(0.100000,-0.100000)"
fill="#000000" stroke="none">
<path d="M3305 3530 c-3 -5 -3 -20 1 -34 10 -40 -36 -121 -133 -237 -49 -58
-100 -127 -112 -152 -43 -90 -24 -215 42 -276 27 -25 109 -40 144 -27 15 6 13
11 -15 37 -87 82 -49 212 91 307 78 53 131 67 257 67 63 0 130 -4 148 -9 45
-12 43 10 -5 56 -46 44 -113 76 -190 88 -57 10 -73 21 -73 53 0 37 -32 78 -83
107 -57 33 -63 34 -72 20z m106 -64 c18 -18 31 -42 35 -67 8 -48 16 -55 81
-62 29 -3 72 -15 95 -25 48 -22 116 -77 107 -86 -3 -4 -30 -1 -60 5 -103 22
-254 -7 -351 -67 -50 -32 -106 -91 -130 -138 -27 -52 -21 -136 10 -169 34 -36
29 -51 -15 -44 -75 13 -124 78 -131 178 -5 69 24 134 96 217 143 164 171 208
172 274 l0 37 31 -13 c17 -7 44 -25 60 -40z"/>
<path d="M3030 3321 c-78 -24 -155 -86 -183 -148 -9 -20 -16 -23 -36 -18 -72
19 -99 17 -155 -11 -31 -15 -56 -33 -56 -40 0 -8 18 -25 40 -39 55 -35 82 -80
135 -225 53 -143 70 -175 125 -223 60 -55 159 -74 219 -42 64 33 110 128 56
115 -50 -12 -111 -4 -142 18 -76 54 -112 210 -79 339 21 83 68 175 117 227 21
24 39 46 39 50 0 8 -49 6 -80 -3z m22 -46 c-42 -48 -78 -111 -102 -180 -26
-74 -27 -220 -4 -289 33 -95 126 -158 202 -137 27 8 32 7 32 -8 0 -24 -50 -70
-91 -81 -40 -12 -90 -4 -139 20 -72 37 -109 97 -175 284 -32 91 -46 118 -84
157 -25 25 -53 49 -61 52 -12 4 -10 10 9 25 38 30 91 43 132 32 56 -16 64 -13
111 49 47 60 127 111 176 111 l24 0 -30 -35z"/>
<path d="M3475 3121 c-46 -15 -87 -44 -115 -83 -44 -60 -47 -96 -16 -163 28
-61 49 -68 54 -20 8 65 74 115 150 115 62 0 163 -36 223 -79 84 -60 149 -152
184 -259 19 -59 33 -62 51 -11 22 61 17 159 -11 215 -31 61 -31 77 -2 93 30
16 53 56 61 104 12 78 -14 107 -67 73 -42 -28 -106 -28 -252 -1 -137 24 -220
30 -260 16z m236 -26 c152 -30 226 -32 278 -5 45 22 51 19 51 -27 0 -47 -22
-93 -59 -126 -35 -31 -35 -39 1 -110 29 -57 28 -207 -2 -207 -4 0 -15 23 -25
52 -52 161 -215 294 -373 306 -41 2 -84 0 -105 -7 -40 -14 -87 -62 -87 -91 0
-32 -18 -32 -35 -1 -36 70 -9 148 70 203 67 45 115 47 286 13z"/>
<path d="M3520 2826 c-14 -8 -36 -33 -49 -56 -29 -52 -19 -68 32 -49 30 11 42
10 81 -5 84 -32 121 -109 120 -251 -1 -132 -44 -234 -142 -337 -52 -55 -34
-67 56 -39 69 21 130 66 178 133 l19 27 48 -16 c44 -14 51 -14 93 2 25 9 57
27 71 39 l26 23 -44 24 c-54 30 -75 67 -129 228 -24 69 -51 142 -60 161 -26
50 -78 97 -129 115 -53 18 -137 19 -171 1z m156 -11 c52 -15 110 -66 137 -120
8 -16 29 -77 47 -135 44 -142 82 -216 125 -242 19 -11 35 -24 35 -29 0 -15
-77 -49 -111 -49 -18 0 -48 5 -66 12 -33 12 -34 11 -84 -45 -28 -32 -70 -68
-92 -81 -42 -24 -107 -43 -107 -32 0 4 20 31 45 62 89 109 119 197 113 332 -5
121 -28 177 -90 222 -37 27 -50 31 -96 28 -59 -3 -69 13 -29 49 51 47 90 53
173 28z"/>
<path d="M2659 2799 c-8 -15 -14 -59 -14 -114 0 -79 3 -97 27 -143 l27 -52
-25 -17 c-14 -9 -32 -29 -40 -44 -16 -31 -20 -154 -5 -164 5 -3 25 4 43 15 46
27 108 34 198 21 259 -35 255 -35 306 -21 52 15 125 74 150 121 19 38 18 97
-4 139 -22 44 -47 51 -56 14 -17 -65 -94 -124 -163 -124 -35 0 -145 35 -182
58 -94 58 -187 175 -213 266 -6 22 -17 47 -24 55 -10 11 -14 9 -25 -10z m54
-91 c47 -97 95 -159 164 -208 62 -44 162 -80 224 -80 77 0 149 45 169 106 7
19 15 34 20 34 5 0 16 -20 25 -44 21 -54 10 -99 -38 -152 -53 -62 -96 -77
-201 -71 -50 3 -136 12 -192 20 -101 15 -169 11 -214 -13 -29 -16 -40 -4 -40
40 0 53 14 86 52 120 l32 29 -22 48 c-30 69 -35 91 -34 161 1 57 6 82 17 82 2
0 19 -33 38 -72z"/>
<path d="M3411 2611 c-12 -8 -9 -16 17 -45 59 -67 52 -144 -22 -224 -85 -93
-170 -130 -311 -138 -75 -4 -112 -2 -150 10 -28 9 -53 12 -58 7 -14 -14 61
-89 116 -117 26 -14 74 -28 105 -32 56 -7 57 -8 63 -44 7 -48 31 -83 77 -112
63 -42 76 -39 83 19 11 79 24 102 118 204 162 177 184 224 156 332 -18 72 -59
123 -105 132 -15 4 -38 9 -51 12 -13 3 -30 1 -38 -4z m119 -39 c37 -28 59 -71
66 -135 9 -79 -21 -136 -141 -267 -104 -113 -131 -156 -141 -219 -8 -47 -14
-49 -61 -20 -37 23 -63 65 -63 102 0 33 -14 42 -83 55 -32 6 -72 19 -90 27
-42 21 -103 73 -94 81 4 4 34 1 68 -6 126 -27 301 24 399 116 92 86 115 174
65 248 -14 20 -25 40 -25 43 0 12 75 -7 100 -25z"/>
<path d="M1155 1702 c-11 -11 -4 -43 11 -49 9 -3 41 -6 72 -7 l57 -1 5 -235 5
-235 30 0 30 0 3 238 2 238 67 -2 c70 -3 93 10 80 44 -5 13 -32 15 -181 15
-96 0 -178 -3 -181 -6z m345 -27 c0 -11 -16 -15 -67 -17 l-68 -3 -5 -230 c-3
-126 -7 -231 -8 -232 -7 -10 -31 0 -37 15 -3 9 -5 110 -4 223 1 113 -1 211 -5
217 -4 7 -34 12 -72 12 -50 0 -64 3 -64 15 0 13 25 15 165 15 138 0 165 -2
165 -15z"/>
<path d="M1599 1701 c-2 -6 -2 -127 1 -268 l5 -258 30 0 30 0 3 118 3 117 134
0 134 0 3 -117 3 -118 30 0 30 0 0 265 0 265 -32 3 c-22 2 -33 -1 -33 -10 -1
-7 -2 -60 -3 -118 l-2 -105 -132 -3 -132 -3 -3 118 -3 118 -31 3 c-18 2 -34
-2 -35 -7z m61 -126 l0 -116 143 3 142 3 3 113 c2 104 4 112 22 112 19 0 20
-8 20 -251 0 -233 -1 -250 -17 -247 -16 3 -19 19 -23 118 l-5 115 -140 0 -140
0 -3 -113 c-2 -92 -6 -114 -18 -119 -9 -3 -20 0 -25 8 -5 8 -9 121 -9 252 l0
237 25 0 25 0 0 -115z"/>
<path d="M2124 1701 c-2 -2 -4 -117 -4 -256 0 -182 3 -254 12 -263 8 -8 54
-12 140 -12 110 0 130 2 135 16 3 9 2 24 -4 33 -8 13 -26 15 -100 13 -66 -3
-93 0 -98 9 -5 7 -8 47 -7 88 l0 76 94 5 c93 5 93 5 96 33 3 20 -1 27 -15 28
-10 0 -53 1 -97 2 l-79 2 0 85 -1 85 94 2 c52 1 101 2 108 2 6 1 12 10 12 20
0 11 -6 23 -12 28 -13 8 -266 12 -274 4z m266 -26 c0 -11 -20 -15 -102 -17
l-103 -3 0 -95 0 -95 93 -3 c69 -2 92 -6 92 -16 0 -18 -32 -24 -95 -20 -97 6
-96 7 -93 -104 l3 -97 103 -3 c82 -2 102 -6 102 -17 0 -12 -22 -15 -125 -15
l-125 0 0 250 0 250 125 0 c103 0 125 -3 125 -15z"/>
<path d="M2563 1691 c-76 -35 -105 -124 -63 -198 24 -44 54 -62 150 -93 74
-25 100 -44 100 -75 0 -31 -40 -65 -78 -65 -30 0 -54 16 -77 53 -9 14 -53 22
-102 18 -19 -1 -15 -31 10 -75 31 -55 92 -86 170 -86 144 0 228 102 178 215
-17 39 -28 49 -74 70 -30 13 -74 29 -98 35 -58 16 -79 36 -79 76 0 61 81 76
129 23 25 -27 33 -30 77 -27 46 3 49 5 46 28 -10 96 -174 153 -289 101z m205
-15 c34 -18 75 -73 68 -91 -8 -21 -76 -6 -100 22 -26 30 -91 35 -130 10 -20
-13 -26 -26 -26 -52 0 -41 31 -69 103 -90 120 -36 167 -77 167 -148 0 -80 -75
-138 -180 -138 -71 -1 -113 20 -147 71 -32 46 -29 60 9 60 23 0 40 -9 64 -35
27 -30 38 -35 77 -35 97 0 128 102 44 142 -18 8 -59 23 -91 32 -84 25 -126 68
-126 130 0 78 30 118 105 137 40 11 130 2 163 -15z"/>
<path d="M2957 1703 c-9 -8 -9 -496 -1 -517 4 -12 20 -16 55 -16 59 0 63 8 56
134 -3 47 -1 86 4 86 4 0 32 -30 61 -66 122 -153 123 -154 190 -154 46 0 59 3
56 14 -2 7 -49 66 -105 131 -57 64 -103 121 -103 126 0 5 17 28 39 52 81 88
170 201 165 209 -7 11 -101 10 -122 -1 -10 -5 -53 -55 -96 -110 -44 -56 -83
-101 -87 -101 -5 0 -6 43 -2 95 7 112 1 125 -62 125 -23 0 -45 -3 -48 -7z m95
-120 c2 -68 7 -108 14 -110 10 -3 59 52 152 173 32 41 37 44 83 44 27 0 49 -3
49 -7 0 -5 -17 -26 -38 -48 -81 -86 -152 -177 -152 -195 0 -10 43 -68 95 -128
52 -61 95 -113 95 -116 0 -9 -73 -7 -86 2 -5 4 -44 48 -86 97 -124 148 -128
148 -128 -1 l0 -104 -40 0 -40 0 0 250 0 250 40 0 39 0 3 -107z"/>
<path d="M3420 1701 c0 -6 38 -82 85 -170 l85 -160 0 -85 c0 -46 3 -91 6 -100
8 -20 89 -22 101 -3 4 6 6 46 5 88 l-4 76 67 133 c36 73 78 150 92 171 14 21
22 43 18 48 -3 6 -31 11 -61 11 l-55 0 -45 -95 c-24 -52 -44 -99 -44 -104 0
-5 -7 -14 -15 -21 -12 -10 -21 3 -54 77 -68 148 -59 138 -124 141 -34 2 -57
-1 -57 -7z m135 -68 c15 -32 34 -76 42 -98 9 -22 23 -48 31 -58 27 -31 40 -10
119 176 15 35 19 37 60 37 47 0 53 -11 27 -48 -8 -12 -43 -75 -77 -140 -59
-114 -61 -120 -66 -212 l-6 -95 -37 -3 -38 -3 0 88 c0 61 -5 97 -16 118 -9 17
-39 75 -67 130 -28 55 -59 112 -69 127 -10 14 -18 29 -18 32 0 3 20 6 44 6 44
0 45 0 71 -57z"/>
<path d="M3942 1443 l3 -268 136 -3 c154 -3 155 -3 140 80 0 4 -38 8 -83 10
l-83 3 -1 211 c-1 117 -5 217 -8 223 -4 6 -29 11 -57 11 l-49 0 2 -267z m89
29 c-2 -182 0 -213 13 -218 8 -3 48 -6 88 -7 71 -2 73 -3 73 -27 l0 -25 -122
-3 c-94 -2 -123 0 -125 10 -1 7 -2 120 -2 251 l-1 238 39 -3 40 -3 -3 -213z"/>
<path d="M4288 1699 c-2 -5 -1 -125 2 -266 l5 -258 50 0 50 0 0 265 0 265 -52
1 c-29 1 -54 -3 -55 -7z m96 -26 c-1 -7 -2 -119 -2 -249 l-2 -235 -37 3 -38 3
-3 248 -2 248 42 -3 c27 -2 43 -8 42 -15z"/>
<path d="M4505 1697 c-3 -7 -4 -127 -3 -267 l3 -255 50 0 50 0 3 168 c1 100 6
167 12 165 5 -2 59 -78 120 -170 l110 -168 44 0 c25 0 48 6 55 14 18 21 14
501 -4 516 -8 6 -33 10 -57 8 l-43 -3 4 -166 c2 -99 0 -169 -6 -172 -5 -3 -43
44 -83 106 -40 62 -89 136 -108 165 -19 29 -42 57 -52 62 -27 14 -90 12 -95
-3z m209 -183 c146 -219 146 -219 146 12 l0 164 40 0 40 0 -2 -247 -3 -248
-40 0 -40 0 -111 165 c-147 219 -148 219 -152 -2 l-2 -168 -35 0 c-19 0 -35 3
-36 8 0 4 -2 116 -5 250 l-6 242 45 0 45 0 116 -176z"/>
<path d="M5060 1706 c-5 -14 0 -517 4 -525 4 -6 27 -11 51 -11 54 0 57 7 53
127 -2 60 1 88 8 88 7 0 51 -48 98 -107 l87 -108 54 0 c29 0 57 5 60 10 4 6
-33 56 -82 112 -139 161 -129 143 -100 181 13 18 59 70 101 117 102 114 101
129 -7 114 -45 -6 -49 -11 -128 -110 -44 -57 -85 -104 -91 -104 -6 0 -7 35 -3
99 8 112 7 115 -62 117 -24 1 -43 1 -43 0z m90 -120 c0 -148 9 -149 113 -12
86 113 90 116 142 116 25 0 45 -2 45 -6 0 -3 -43 -54 -95 -115 -52 -60 -95
-117 -95 -126 1 -10 43 -69 95 -131 52 -61 95 -114 95 -117 0 -8 -74 -6 -86 3
-6 4 -46 50 -89 102 -80 99 -101 118 -116 103 -4 -4 -10 -53 -11 -108 l-3
-100 -35 0 -35 0 -3 248 -2 247 40 0 40 0 0 -104z"/>
</g>
</svg>
